<?xml version="1.0" encoding="utf-8"?>
<!-- Generator: Adobe Illustrator 22.0.1, SVG Export Plug-In . SVG Version: 6.00 Build 0)  -->
<svg version="1.1" id="Capa_1" xmlns="http://www.w3.org/2000/svg" xmlns:xlink="http://www.w3.org/1999/xlink" x="0px" y="0px"
	 viewBox="0 0 455.7 455.7" style="enable-background:new 0 0 455.7 455.7;" xml:space="preserve">
<g>
	<path id="WhatsApp" d="M385.7,223.8c0,84.9-69.4,153.8-155,153.8c-27.2,0-52.7-6.9-74.9-19.1L70,385.7l28-82.5
		c-14.1-23.2-22.2-50.3-22.2-79.4c0-84.9,69.4-153.8,155-153.8C316.3,70,385.7,138.9,385.7,223.8z M230.7,94.5
		c-71.8,0-130.3,58-130.3,129.3c0,28.3,9.2,54.5,24.8,75.8l-16.3,48l50.1-15.9c20.6,13.5,45.2,21.4,71.7,21.4
		c71.8,0,130.3-58,130.3-129.3S302.6,94.5,230.7,94.5z M309,259.2c-1-1.6-3.5-2.5-7.3-4.4c-3.8-1.9-22.5-11-26-12.3
		c-3.5-1.3-6-1.9-8.6,1.9c-2.5,3.8-9.8,12.3-12,14.8c-2.2,2.5-4.4,2.8-8.2,1c-3.8-1.9-16-5.9-30.5-18.7
		c-11.3-10-18.9-22.3-21.1-26.1c-2.2-3.8-0.2-5.8,1.7-7.7c1.7-1.7,3.8-4.4,5.7-6.6c1.9-2.2,2.5-3.8,3.8-6.3c1.3-2.5,0.6-4.7-0.3-6.6
		c-0.9-1.9-8.6-20.4-11.7-28c-3.2-7.5-6.3-6.3-8.5-6.3c-2.2,0-4.7-0.3-7.3-0.3s-6.6,0.9-10.1,4.7c-3.5,3.8-13.3,12.9-13.3,31.4
		c0,18.5,13.6,36.5,15.5,39c1.9,2.5,26.3,41.8,64.9,56.9c38.6,15.1,38.6,10.1,45.6,9.4c7-0.6,22.5-9.1,25.6-17.9
		C309.9,268.3,309.9,260.8,309,259.2z"/>
</g>
</svg>
